<svg version="1.1" xmlns="http://www.w3.org/2000/svg" viewBox="0 0 32 32">
	<symbol id="action-add">
		<path d="M16 30.1c7.8 0 14.1-6.3 14.1-14.1S23.8 1.9 16 1.9 1.9 8.2 1.9 16 8.2 30.1 16 30.1zm1.8-19.4c0-1-.8-1.8-1.8-1.8s-1.8.8-1.8 1.8v3.5h-3.5c-1 0-1.8.8-1.8 1.8s.8 1.8 1.8 1.8h3.5v3.5c0 1 .8 1.8 1.8 1.8s1.8-.8 1.8-1.8v-3.5h3.5c1 0 1.8-.8 1.8-1.8s-.8-1.8-1.8-1.8h-3.5v-3.5z" fill-rule="evenodd" clip-rule="evenodd"/>
	</symbol>
	<symbol id="action-alert">
		<path d="M12.9 5.4c1.4-2.4 4.9-2.4 6.2 0l10 17.7c1.3 2.4-.4 5.3-3.1 5.3H6c-2.7 0-4.5-2.9-3.1-5.3l10-17.7zm4.9 17.7c0 1-.8 1.8-1.8 1.8s-1.8-.8-1.8-1.8.8-1.8 1.8-1.8 1.8.8 1.8 1.8zM16 8.8c-1 0-1.8.8-1.8 1.8V17c0 1 .8 1.8 1.8 1.8s1.8-.8 1.8-1.8v-6.4c0-1-.8-1.8-1.8-1.8z" fill-rule="evenodd" clip-rule="evenodd"/>
	</symbol>
</svg>